#!OML:ASF F:\VICON\USERDATA\Patient Classification 1\PLAYGROUND\JustinFriday\JustinFriday.ASF
:FULLY-SPECIFIED
:DEGREES
1410
root -27.8864 18.1229 -8.631 316.636 76.4444 -51.3795
lowerback 33.4128 4.46932 2.16749
upperback 7.44976 7.14723 0.606601
thorax -8.60234 3.60407 -3.15223
lowerneck -3.82767 -9.65868 -0.182696
upperneck 25.29 -13.6712 5.11987
head 8.92404 -5.68263 0.59152
rclavicle 2.3059e-014 2.127e-014
rhumerus 47.1439 8.49595 -63.1952
rradius 59.9244
rwrist 5.89314
rhand -34.7806 -16.0931
rfingers 7.12502
rthumb -7.93302 -405.924
lclavicle 2.3059e-014 2.127e-014
lhumerus 59.4213 -23.2095 53.6868
lradius 28.1441
lwrist -16.1439
lhand -30.3263 -20.8916
lfingers 7.12502
lthumb -3.63254 9.05724
rfemur -15.0463 0.891573 33.082
rtibia 21.2982
rfoot -10.9893 0.992976
rtoes -2.01343
lfemur -52.5547 13.4604 -4.28996
ltibia 86.8682
lfoot -7.28466 -14.8138
ltoes 13.0994
1411
root -27.888 18.1596 -8.6285 335.22 79.8135 -31.495
lowerback 33.9356 5.06198 -3.18142
upperback 7.63657 5.99221 -0.516292
thorax -8.95903 3.14836 -1.14961
lowerneck -3.57783 -9.33008 0.737611
upperneck 24.6313 -13.1945 4.62423
head 8.53106 -5.47161 0.356904
rclavicle -6.75868e-015 2.94201e-014
rhumerus 45.5361 10.3115 -63.2655
rradius 61.2868
rwrist 5.10209
rhand -34.5427 -15.1234
rfingers 7.12502
rthumb -7.70342 -404.963
lclavicle -6.75868e-015 2.94201e-014
lhumerus 58.8962 -23.0763 51.902
lradius 28.6615
lwrist -14.5585
lhand -35.2871 -13.1336
lfingers 7.12502
lthumb -8.42187 16.6785
rfemur -14.1491 -0.234923 27.3799
rtibia 21.622
rfoot -12.4843 0.938547
rtoes -5.92964
lfemur -49.0967 10.7013 -10.0736
ltibia 83.5697
lfoot -7.3147 -14.5681
ltoes 9.90736
1412
root -27.8939 18.0749 -8.69081 330.901 78.8573 -35.9827
lowerback 33.7732 4.7388 -1.84199
upperback 7.49861 6.03346 -0.409882
thorax -8.96422 3.14033 -1.74657
lowerneck -3.62989 -9.40787 0.580709
upperneck 24.5112 -13.3259 4.75504
head 8.52351 -5.5443 0.410166
rclavicle 5.08889e-014 -2.06736e-014
rhumerus 43.6643 11.6435 -63.2984
rradius 62.6231
rwrist 5.02236
rhand -34.0262 -15.9747
rfingers 7.12502
rthumb -7.20489 -405.832
lclavicle 5.08889e-014 -2.06736e-014
lhumerus 58.41 -22.6842 52.6307
lradius 28.0073
lwrist -15.5671
lhand -31.5598 -21.1457
lfingers 7.12502
lthumb -4.82364 8.77938
rfemur -14.6561 -1.28997 28.702
rtibia 22.4253
rfoot -13.1867 1.57325
rtoes -10.9124
lfemur -48.0578 10.3994 -8.68881
ltibia 81.2847
lfoot -8.18298 -15.0291
ltoes 3.38451
1413
root -27.8973 18.047 -8.71298 330.053 77.9409 -36.9081
lowerback 33.443 4.84657 -1.19784
upperback 7.40237 6.37978 -0.34713
thorax -8.89696 3.28571 -2.12741
lowerneck -3.70656 -9.7646 -0.718089
upperneck 24.759 -13.9368 5.84922
head 8.82402 -5.82671 0.898756
rclavicle -2.98177e-014 -2.62396e-014
rhumerus 41.7449 12.9004 -63.4272
rradius 63.5024
rwrist 3.72623
rhand -35.2318 -16.2531
rfingers 7.12502
rthumb -8.3685 -406.067
lclavicle -2.98177e-014 -2.62396e-014
lhumerus 57.4379 -21.3965 57.3713
lradius 25.872
lwrist -20.6048
lhand -31.5548 -22.9845
lfingers 7.12502
lthumb -4.81888 6.94073
rfemur -15.484 -0.852892 29.1619
rtibia 23.4574
rfoot -12.2913 4.00569
rtoes -6.01807
lfemur -46.4683 11.5619 -7.66073
ltibia 78.4403
lfoot -6.82816 -17.228
ltoes 3.10519
1414
root -27.9009 18.1505 -8.78911 347.113 78.7626 -20.3404
lowerback 32.719 5.28699 -3.941
upperback 7.09649 5.91631 -1.2444
thorax -9.06938 3.10248 -1.43512
lowerneck -3.84888 -9.60034 -1.18927
upperneck 23.9271 -13.702 6.03504
head 8.59845 -5.78756 1.05603
rclavicle 4.77083e-014 -7.39479e-014
rhumerus 39.6969 14.1932 -63.3894
rradius 64.414
rwrist 3.38981
rhand -34.0126 -14.1866
rfingers 7.12502
rthumb -7.19168 -404.044
lclavicle 4.77083e-014 -7.39479e-014
lhumerus 56.813 -21.4971 58.1199
lradius 25.6045
lwrist -21.634
lhand -30.8536 -22.7748
lfingers 7.12502
lthumb -4.14177 7.1647
rfemur -17.2738 -1.40885 25.1659
rtibia 24.5127
rfoot -10.6022 4.26023
rtoes 7.00456
lfemur -44.6287 8.82988 -11.644
ltibia 74.711
lfoot -10.7134 -14.7462
ltoes -15.4745
1415
root -27.9202 18.0397 -8.82848 337.538 76.1552 -31.3084
lowerback 31.0917 5.42854 -1.97292
upperback 7.09454 6.81445 -0.220393
thorax -9.10156 3.44569 -1.72016
lowerneck -3.74699 -10.2476 -1.81546
upperneck 24.0772 -14.4645 5.69956
head 8.68669 -6.23292 0.969559
rclavicle 4.79071e-014 5.1684e-015
rhumerus 37.6733 16.2915 -62.3252
rradius 65.8394
rwrist 1.91438
rhand -34.0937 -14.8661
rfingers 7.12502
rthumb -7.27001 -404.721
lclavicle 4.79071e-014 5.1684e-015
lhumerus 55.701 -20.5554 60.5325
lradius 25.0282
lwrist -22.2711
lhand -32.8433 -23.343
lfingers 7.12502
lthumb -6.06293 6.55023
rfemur -18.7182 -0.103586 28.6628
rtibia 25.3412
rfoot -10.0146 4.16282
rtoes 14.0814
lfemur -44.59 9.57081 -7.92916
ltibia 72.3795
lfoot -9.96673 -14.8422
ltoes -16.0133
1416
root -27.9135 18.0253 -8.88734 342.604 76.1451 -26.4266
lowerback 30.4842 5.42837 -2.80431
upperback 6.92908 6.52825 -0.496572
thorax -9.05234 3.32137 -1.41028
lowerneck -3.69195 -10.365 -1.67219
upperneck 23.815 -14.5733 5.3756
head 8.55316 -6.32169 0.839694
rclavicle -4.90998e-014 1.98785e-014
rhumerus 36.0765 18.0948 -62.8243
rradius 65.8329
rwrist 1.72757
rhand -34.148 -15.5462
rfingers 7.12502
rthumb -7.32246 -405.4
lclavicle -4.90998e-014 1.98785e-014
lhumerus 54.7201 -20.1253 60.0587
lradius 25.5425
lwrist -21.9093
lhand -32.5204 -23.8823
lfingers 7.12502
lthumb -5.75122 6.01967
rfemur -19.7169 -0.713429 27.3291
rtibia 26.3622
rfoot -9.89686 5.52328
rtoes 14.8956
lfemur -43.0273 8.74763 -9.13069
ltibia 69.1201
lfoot -10.0618 -16.8258
ltoes -17.1551
1417
root -27.9115 17.9442 -8.79815 338.281 76.3276 -29.1253
lowerback 31.1561 5.32513 -3.3805
upperback 7.35501 6.28941 -0.0747411
thorax -8.98654 3.2379 -0.553758
lowerneck -3.85231 -10.3198 -2.25509
upperneck 23.7848 -14.6306 6.09439
head 8.67933 -6.33346 1.14353
rclavicle 3.57812e-015 2.70347e-014
rhumerus 34.3216 19.8074 -63.7253
rradius 66.0118
rwrist 1.55901
rhand -33.3489 -15.5211
rfingers 7.12502
rthumb -6.55101 -405.4
lclavicle 3.57812e-015 2.70347e-014
lhumerus 54.1402 -19.2985 60.2326
lradius 25.0267
lwrist -22.4026
lhand -32.1454 -24.0036
lfingers 7.12502
lthumb -5.38909 5.90787
rfemur -17.8368 -0.0396982 28.1474
rtibia 26.8202
rfoot -11.1516 3.70371
rtoes 8.83452
lfemur -39.9769 8.61954 -7.81513
ltibia 66.3967
lfoot -8.86805 -20.3084
ltoes -12.688
1418
root -27.9308 17.9239 -8.94867 346.069 75.0203 -23.0141
lowerback 30.1278 5.25756 -3.41146
upperback 6.52209 6.02931 -1.15238
thorax -9.3233 3.08202 -1.61059
lowerneck -3.97485 -10.101 -2.97207
upperneck 23.6212 -14.4847 7.06998
head 8.7725 -6.24418 1.57871
rclavicle -1.55052e-014 4.17448e-014
rhumerus 32.1699 21.676 -64.4839
rradius 66.731
rwrist 0.799958
rhand -32.9253 -16.101
rfingers 7.12502
rthumb -6.14209 -405.992
lclavicle -1.55052e-014 4.17448e-014
lhumerus 53.8534 -20.1876 56.5248
lradius 26.3106
lwrist -19.0461
lhand -32.4053 -22.6737
lfingers 7.12502
lthumb -5.64005 7.2312
rfemur -20.2772 -0.503667 26.904
rtibia 27.3777
rfoot -10.4376 6.09356
rtoes 10.7914
lfemur -40.1267 8.36877 -9.24843
ltibia 63.4298
lfoot -8.07283 -19.9824
ltoes -6.98021
1419
root -27.9093 17.9074 -8.87941 340.077 75.2119 -27.5507
lowerback 30.7073 4.84746 -3.21994
upperback 6.8823 5.63962 -0.629041
thorax -9.22555 2.91262 -1.00941
lowerneck -3.74515 -9.88226 -1.04955
upperneck 22.9314 -14.1734 6.17551
head 8.261 -6.06547 1.05116
rclavicle 9.93923e-015 1.66979e-014
rhumerus 30.1752 23.8617 -65.1918
rradius 67.1591
rwrist -0.0953832
rhand -33.0154 -16.5161
rfingers 7.12502
rthumb -6.22904 -406.405
lclavicle 9.93923e-015 1.66979e-014
lhumerus 53.4841 -20.965 54.0503
lradius 26.9159
lwrist -16.0543
lhand -33.7329 -21.6309
lfingers 7.12502
lthumb -6.92169 8.23596
rfemur -18.6973 -0.120488 28.0535
rtibia 28.001
rfoot -10.886 5.07939
rtoes 12.7969
lfemur -36.7429 5.7039 -7.16535
ltibia 60.3268
lfoot -7.22881 -20.677
ltoes -2.1413
1420
root -27.9218 17.8808 -8.91213 339.117 74.3477 -28.9074
lowerback 29.8297 4.67738 -3.15516
upperback 6.83673 5.49836 -0.263888
thorax -8.88907 2.84328 -0.519285
lowerneck -3.72731 -9.64306 -3.42473
upperneck 22.4477 -13.8702 7.46376
head 8.34917 -6.03096 1.86356
rclavicle 2.42517e-014 -2.38542e-014
rhumerus 28.9627 26.1559 -65.6308
rradius 66.8924
rwrist -0.753775
rhand -32.4331 -16.1956
rfingers 7.12502
rthumb -5.66692 -406.1
lclavicle 2.42517e-014 -2.38542e-014
lhumerus 52.492 -18.8646 57.6129
lradius 25.1628
lwrist -20.1676
lhand -32.9755 -22.3851
lfingers 7.12502
lthumb -6.19058 7.50442
rfemur -19.2161 0.647563 28.6859
rtibia 28.206
rfoot -10.5822 5.1083
rtoes 14.5055
lfemur -35.5716 4.18632 -5.96309
ltibia 57.6356
lfoot -15.6451 -18.0569
ltoes -30.2327
1421
root -27.929 17.8944 -9.02525 349.899 74.5473 -19.1138
lowerback 28.5793 4.63019 -4.95324
upperback 6.48424 4.86186 -0.971759
thorax -8.73147 2.56633 0.0112156
lowerneck -3.87741 -9.59998 -4.15169
upperneck 21.6436 -13.7792 7.72774
head 8.16987 -6.06309 2.06772
rclavicle 2.90226e-014 -9.54166e-015
rhumerus 27.4911 28.2411 -65.6344
rradius 66.2591
rwrist -1.34557
rhand -31.8334 -15.9517
rfingers 7.12502
rthumb -5.08791 -405.871
lclavicle 2.90226e-014 -9.54166e-015
lhumerus 50.7037 -15.4599 62.6851
lradius 23.8888
lwrist -25.0416
lhand -32.0001 -25.8056
lfingers 7.12502
lthumb -5.24879 4.10941
rfemur -21.14 -0.847022 25.7436
rtibia 28.6606
rfoot -10.2246 7.20257
rtoes 12.7572
lfemur -35.1737 2.43187 -8.91535
ltibia 54.4738
lfoot -12.8299 -18.9421
ltoes -29.4555
1422
root -27.8817 17.7989 -9.12421 331.245 74.1162 -37.1845
lowerback 30.0799 2.63689 1.57088
upperback 6.43336 4.30731 -0.192512
thorax -9.12512 2.17895 -2.7325
lowerneck -3.91009 -9.62968 -5.03159
upperneck 21.6361 -13.8901 8.45762
head 8.30094 -6.12266 2.42695
rclavicle 5.08889e-014 -2.3059e-014
rhumerus 24.6354 29.61 -66.9391
rradius 66.2224
rwrist -1.33588
rhand -31.2264 -16.5529
rfingers 7.12502
rthumb -4.50174 -406.485
lclavicle 5.08889e-014 -2.3059e-014
lhumerus 50.0298 -16.2425 61.2207
lradius 24.4354
lwrist -23.7775
lhand -32.0192 -26.3881
lfingers 7.12502
lthumb -5.2673 3.52648
rfemur -19.9309 -2.11327 30.7304
rtibia 28.9484
rfoot -11.0342 7.08158
rtoes 14.613
lfemur -33.3843 -0.0336462 -3.23233
ltibia 52.2705
lfoot -10.8144 -20.7053
ltoes -28.2711
1423
root -27.8914 17.825 -9.03939 337.036 75.0373 -30.7637
lowerback 28.9332 2.89167 -2.43862
upperback 6.90349 3.50775 0.129466
thorax -8.31444 1.90145 0.289908
lowerneck -4.35033 -9.35141 -5.53851
upperneck 21.5417 -13.4377 8.29961
head 8.33732 -5.96183 2.4792
rclavicle 6.75868e-015 -8.74653e-015
rhumerus 23.3642 32.5733 -67.304
rradius 66.199
rwrist -1.76489
rhand -30.3762 -17.3143
rfingers 7.12502
rthumb -3.6808 -407.262
lclavicle 6.75868e-015 -8.74653e-015
lhumerus 48.715 -13.8039 62.6547
lradius 24.1266
lwrist -24.9022
lhand -32.4135 -25.7626
lfingers 7.12502
lthumb -5.64792 4.14213
rfemur -19.9437 -0.800542 28.5198
rtibia 29.7022
rfoot -10.943 6.35679
rtoes 19.7317
lfemur -31.3252 -1.44397 -4.9148
ltibia 49.3184
lfoot -8.94671 -21.439
ltoes -25.5448
1424
root -27.8786 17.7439 -9.14986 340.171 74.6109 -28.6722
lowerback 27.7339 2.212 -1.98143
upperback 6.45988 2.69566 -0.375215
thorax -8.16016 1.4918 -0.213639
lowerneck -4.62972 -8.9212 -6.04422
upperneck 21.4849 -12.8826 8.68991
head 8.38561 -5.70458 2.73407
rclavicle -6.36111e-015 1.90833e-014
rhumerus 21.3645 34.4555 -69.5896
rradius 65.1749
rwrist -1.95863
rhand -29.4382 -17.2711
rfingers 7.12502
rthumb -2.77494 -407.233
lclavicle -6.36111e-015 1.90833e-014
lhumerus 47.7469 -12.4131 62.3481
lradius 23.8717
lwrist -24.7036
lhand -32.6041 -24.223
lfingers 7.12502
lthumb -5.83196 5.67674
rfemur -21.1263 -2.61432 28.2278
rtibia 30.0942
rfoot -11.6657 7.96176
rtoes 15.0767
lfemur -31.545 -1.42336 -5.58526
ltibia 47.1271
lfoot -7.00903 -22.0745
ltoes -21.6472
